<svg width="21" height="22" viewBox="0 0 21 22" fill="none" xmlns="http://www.w3.org/2000/svg">
<path d="M10.5047 5.60928C7.52344 5.60928 5.11876 8.01396 5.11876 10.9952C5.11876 13.9765 7.52344 16.3812 10.5047 16.3812C13.4859 16.3812 15.8906 13.9765 15.8906 10.9952C15.8906 8.01396 13.4859 5.60928 10.5047 5.60928ZM10.5047 14.4968C8.57813 14.4968 7.00313 12.9265 7.00313 10.9952C7.00313 9.06396 8.57344 7.49365 10.5047 7.49365C12.4359 7.49365 14.0063 9.06396 14.0063 10.9952C14.0063 12.9265 12.4313 14.4968 10.5047 14.4968ZM17.3672 5.38896C17.3672 6.0874 16.8047 6.64522 16.1109 6.64522C15.4125 6.64522 14.8547 6.08271 14.8547 5.38896C14.8547 4.69521 15.4172 4.13271 16.1109 4.13271C16.8047 4.13271 17.3672 4.69521 17.3672 5.38896ZM20.9344 6.66397C20.8547 4.98115 20.4703 3.49053 19.2375 2.2624C18.0094 1.03428 16.5188 0.649902 14.8359 0.565527C13.1016 0.46709 7.90313 0.46709 6.16876 0.565527C4.49063 0.645215 3.00001 1.02959 1.76719 2.25771C0.534381 3.48584 0.154694 4.97646 0.0703186 6.65928C-0.0281189 8.39365 -0.0281189 13.5921 0.0703186 15.3265C0.150006 17.0093 0.534381 18.4999 1.76719 19.728C3.00001 20.9562 4.48594 21.3405 6.16876 21.4249C7.90313 21.5233 13.1016 21.5233 14.8359 21.4249C16.5188 21.3452 18.0094 20.9608 19.2375 19.728C20.4656 18.4999 20.85 17.0093 20.9344 15.3265C21.0328 13.5921 21.0328 8.39834 20.9344 6.66397ZM18.6938 17.1874C18.3281 18.1062 17.6203 18.814 16.6969 19.1843C15.3141 19.7327 12.0328 19.6062 10.5047 19.6062C8.97657 19.6062 5.69063 19.728 4.31251 19.1843C3.39376 18.8187 2.68594 18.1108 2.31563 17.1874C1.76719 15.8046 1.89376 12.5233 1.89376 10.9952C1.89376 9.46709 1.77188 6.18115 2.31563 4.80303C2.68126 3.88428 3.38907 3.17646 4.31251 2.80615C5.69532 2.25771 8.97657 2.38428 10.5047 2.38428C12.0328 2.38428 15.3188 2.2624 16.6969 2.80615C17.6156 3.17178 18.3234 3.87959 18.6938 4.80303C19.2422 6.18584 19.1156 9.46709 19.1156 10.9952C19.1156 12.5233 19.2422 15.8093 18.6938 17.1874Z" fill="black"/>
</svg>
