<svg width="33" height="34" viewBox="0 0 33 34" fill="none" xmlns="http://www.w3.org/2000/svg">
<path d="M8.25 29.375L16.5 22.5L24.75 29.375" stroke="#1D4ED8" stroke-width="4" stroke-linecap="round" stroke-linejoin="round"/>
<path d="M16.5 18.375V29.375" stroke="#1D4ED8" stroke-width="4" stroke-linecap="round" stroke-linejoin="round"/>
<path d="M4.52927 19.3072L4.75752 19.6936C5.47252 20.9036 6.99052 21.433 8.33939 20.9449L27.9221 13.843C28.1154 13.7763 28.2918 13.6684 28.439 13.5266C28.5863 13.3848 28.7008 13.2127 28.7748 13.0221C28.8487 12.8316 28.8803 12.6272 28.8672 12.4232C28.8541 12.2192 28.7967 12.0205 28.699 11.841L25.0965 5.37162C24.9037 5.03695 24.5889 4.78988 24.218 4.68222C23.8471 4.57456 23.4489 4.61466 23.1069 4.79412L23.0299 4.83812L5.57564 15.3129C4.17314 16.1557 3.70977 17.9212 4.53064 19.3072H4.52927Z" stroke="#1D4ED8" stroke-width="4" stroke-linecap="round" stroke-linejoin="round"/>
<path d="M19.25 7.375L23.375 14.9375" stroke="#1D4ED8" stroke-width="4" stroke-linecap="round" stroke-linejoin="round"/>
</svg>
